<svg width="1600" height="900" viewBox="0 0 1600 900" fill="none" xmlns="http://www.w3.org/2000/svg">
  <defs>
    <linearGradient id="safe8" x1="0" y1="0" x2="1" y2="1">
      <stop offset="0" stop-color="#D9F9A1"/>
      <stop offset="1" stop-color="#BAE96A"/>
    </linearGradient>
    <linearGradient id="warn8" x1="0" y1="0" x2="1" y2="1">
      <stop offset="0" stop-color="#FFD9AF"/>
      <stop offset="1" stop-color="#F3B570"/>
    </linearGradient>
    <filter id="shadow8" x="0" y="0" width="1800" height="1100" filterUnits="userSpaceOnUse" color-interpolation-filters="sRGB">
      <feDropShadow dx="0" dy="16" stdDeviation="20" flood-color="#9DB0C1" flood-opacity="0.22"/>
    </filter>
  </defs>


  <g filter="url(#shadow8)">
    <rect x="120" y="100" width="1360" height="700" rx="28" fill="#FFFFFF"/>
  </g>

  <rect x="166" y="156" width="1268" height="86" rx="16" fill="#FFFFFF" stroke="#DDE6EE"/>
  <rect x="196" y="186" width="300" height="14" rx="7" fill="#E2EAF2"/>
  <rect x="196" y="210" width="760" height="10" rx="5" fill="#EDF3F8"/>

  <rect x="166" y="270" width="616" height="484" rx="20" fill="#FFFFFF" stroke="#DDE6EE"/>
  <rect x="818" y="270" width="616" height="484" rx="20" fill="#FFFFFF" stroke="#DDE6EE"/>

  <rect x="196" y="316" width="556" height="84" rx="14" fill="#F6FFF0" stroke="#D7EABF"/>
  <rect x="196" y="416" width="556" height="84" rx="14" fill="#F6FFF0" stroke="#D7EABF"/>
  <rect x="196" y="516" width="556" height="84" rx="14" fill="#F6FFF0" stroke="#D7EABF"/>
  <rect x="196" y="616" width="556" height="84" rx="14" fill="#F6FFF0" stroke="#D7EABF"/>

  <rect x="848" y="316" width="556" height="84" rx="14" fill="#FFF8EF" stroke="#F0DABF"/>
  <rect x="848" y="416" width="556" height="84" rx="14" fill="#FFF8EF" stroke="#F0DABF"/>
  <rect x="848" y="516" width="556" height="84" rx="14" fill="#FFF8EF" stroke="#F0DABF"/>
  <rect x="848" y="616" width="556" height="84" rx="14" fill="#FFF8EF" stroke="#F0DABF"/>

  <circle cx="228" cy="358" r="11" fill="url(#safe8)"/>
  <circle cx="228" cy="458" r="11" fill="url(#safe8)"/>
  <circle cx="228" cy="558" r="11" fill="url(#safe8)"/>
  <circle cx="228" cy="658" r="11" fill="url(#safe8)"/>

  <circle cx="880" cy="358" r="11" fill="url(#warn8)"/>
  <circle cx="880" cy="458" r="11" fill="url(#warn8)"/>
  <circle cx="880" cy="558" r="11" fill="url(#warn8)"/>
  <circle cx="880" cy="658" r="11" fill="url(#warn8)"/>

  <text x="196" y="298" fill="#5E7587" font-size="18" font-family="Manrope, Segoe UI, Arial, sans-serif" font-weight="600">Use confidently</text>
  <text x="848" y="298" fill="#5E7587" font-size="18" font-family="Manrope, Segoe UI, Arial, sans-serif" font-weight="600">Avoid unqualified claims</text>

  <text x="254" y="364" fill="#6F8698" font-size="14" font-family="Manrope, Segoe UI, Arial, sans-serif">Desktop operator desk for AI work</text>
  <text x="254" y="464" fill="#6F8698" font-size="14" font-family="Manrope, Segoe UI, Arial, sans-serif">Self-hosted and local-first friendly</text>
  <text x="254" y="564" fill="#6F8698" font-size="14" font-family="Manrope, Segoe UI, Arial, sans-serif">Model-agnostic through OpenClaw</text>
  <text x="254" y="664" fill="#6F8698" font-size="14" font-family="Manrope, Segoe UI, Arial, sans-serif">Approval-first controls for sensitive actions</text>

  <text x="906" y="364" fill="#7A8FA0" font-size="14" font-family="Manrope, Segoe UI, Arial, sans-serif">Fully autonomous unattended operations</text>
  <text x="906" y="464" fill="#7A8FA0" font-size="14" font-family="Manrope, Segoe UI, Arial, sans-serif">Complete compliance out of the box</text>
  <text x="906" y="564" fill="#7A8FA0" font-size="14" font-family="Manrope, Segoe UI, Arial, sans-serif">Guaranteed zero-risk outcomes</text>
  <text x="906" y="664" fill="#7A8FA0" font-size="14" font-family="Manrope, Segoe UI, Arial, sans-serif">Provider lock-in assumptions</text>
</svg>
